<svg width="167" height="43" viewBox="0 0 167 43" fill="none" xmlns="http://www.w3.org/2000/svg">
<path d="M10.3936 1.20703L10.1895 4.36523L10.1143 4.38672C9.58431 3.5918 8.68197 3.07617 7.40723 2.83984C7.00618 2.76107 6.61947 2.72168 6.24707 2.72168C5.88184 2.72168 5.56673 2.75391 5.30176 2.81836C5.04395 2.88281 4.82194 2.97591 4.63574 3.09766C4.24186 3.35547 4.04492 3.69206 4.04492 4.10742C4.04492 4.65169 4.2168 5.0599 4.56055 5.33203C4.99023 5.66146 5.7028 5.89421 6.69824 6.03027C7.69368 6.15918 8.49219 6.33822 9.09375 6.56738C9.69531 6.79655 10.1895 7.08659 10.5762 7.4375C11.3066 8.09635 11.6719 9.02734 11.6719 10.2305C11.6719 11.806 11.0775 13.0199 9.88867 13.8721C8.87174 14.6025 7.58984 14.9678 6.04297 14.9678C4.79688 14.9678 3.5651 14.7314 2.34766 14.2588C1.94661 14.1012 1.5957 13.9186 1.29492 13.7109L1.41309 10.123L1.45605 10.0908C2.34408 11.6234 3.80143 12.3896 5.82812 12.3896C7.26758 12.3896 8.22005 12.0423 8.68555 11.3477C8.8431 11.1113 8.92188 10.8499 8.92188 10.5635C8.92188 10.2699 8.87533 10.0299 8.78223 9.84375C8.68913 9.65039 8.53516 9.48568 8.32031 9.34961C7.90495 9.07747 7.20671 8.89486 6.22559 8.80176C5.24447 8.70866 4.44238 8.5332 3.81934 8.27539C3.19629 8.01758 2.69857 7.69889 2.32617 7.31934C1.65299 6.63184 1.31641 5.6722 1.31641 4.44043C1.31641 3.16569 1.764 2.13444 2.65918 1.34668C3.56868 0.544596 4.79329 0.143555 6.33301 0.143555C7.87988 0.143555 9.2334 0.498047 10.3936 1.20703ZM19.3096 12.3359C20.2334 12.3359 20.8672 12.096 21.2109 11.6162H21.2969L21.3291 14.1084C20.9782 14.4593 20.3265 14.6921 19.374 14.8066C19.1162 14.8424 18.7939 14.8604 18.4072 14.8604C18.0277 14.8604 17.6123 14.7887 17.1611 14.6455C16.7171 14.5023 16.3376 14.2695 16.0225 13.9473C15.3708 13.2812 15.0449 12.2393 15.0449 10.8213V5.94434H13.4229C13.4157 5.73665 13.4121 5.52539 13.4121 5.31055V3.65625C13.4121 3.53451 13.4157 3.47363 13.4229 3.47363H15.0449V0.412109H17.6768V3.47363H20.6309V5.94434H17.6768V10.3271C17.6768 11.4515 17.9883 12.0924 18.6113 12.25C18.8118 12.3073 19.0446 12.3359 19.3096 12.3359ZM30.9326 14.0332C29.9157 14.5846 28.9954 14.8604 28.1719 14.8604C27.3483 14.8604 26.6429 14.7852 26.0557 14.6348C25.4684 14.4772 24.9707 14.248 24.5625 13.9473C23.7318 13.3385 23.3164 12.4577 23.3164 11.3047C23.3164 10.2734 23.8249 9.41406 24.8418 8.72656C25.9447 7.98177 27.4414 7.60938 29.332 7.60938L29.7617 7.62012C29.8477 7.62728 29.9443 7.63444 30.0518 7.6416C30.1592 7.6416 30.2559 7.64876 30.3418 7.66309C30.2845 6.51725 29.7904 5.84766 28.8594 5.6543C28.5514 5.58984 28.222 5.55762 27.8711 5.55762C27.5273 5.55762 27.1872 5.58984 26.8506 5.6543C26.5212 5.71159 26.1989 5.79036 25.8838 5.89062C25.1891 6.11263 24.6914 6.36686 24.3906 6.65332L24.3584 6.63184L24.0361 4.25781C25.3037 3.5918 26.6895 3.25879 28.1934 3.25879C30.528 3.25879 32.0212 4.10026 32.6729 5.7832C32.8805 6.32031 32.9844 6.92546 32.9844 7.59863V11.4873C32.9844 12.318 33.278 12.8838 33.8652 13.1846L31.9209 14.9678C31.5127 14.7529 31.1833 14.4414 30.9326 14.0332ZM30.3525 9.59668C30.1592 9.56087 29.9587 9.54297 29.751 9.54297H29.3213C27.7386 9.54297 26.7324 9.89388 26.3027 10.5957C26.1738 10.8034 26.1094 11.0218 26.1094 11.251C26.1094 11.4801 26.1488 11.6842 26.2275 11.8633C26.3135 12.0352 26.4531 12.1784 26.6465 12.293C27.0189 12.5078 27.5703 12.6152 28.3008 12.6152C29.0384 12.6152 29.7259 12.4398 30.3633 12.0889C30.3561 12.0101 30.3525 11.9277 30.3525 11.8418V9.59668ZM38.8818 13.4961C38.8818 14.112 38.8962 14.513 38.9248 14.6992H36.25V3.47363H38.8818V4.30078C39.4906 3.60612 40.1279 3.25879 40.7939 3.25879C41.4671 3.25879 41.9971 3.34115 42.3838 3.50586L42.1904 6.39551L42.1475 6.42773C41.8968 5.98372 41.3776 5.76172 40.5898 5.76172C40.2891 5.76172 39.9811 5.86556 39.666 6.07324C39.3581 6.27376 39.0967 6.54232 38.8818 6.87891V13.4961ZM48.6787 12.3359C49.6025 12.3359 50.2363 12.096 50.5801 11.6162H50.666L50.6982 14.1084C50.3473 14.4593 49.6956 14.6921 48.7432 14.8066C48.4854 14.8424 48.1631 14.8604 47.7764 14.8604C47.3968 14.8604 46.9814 14.7887 46.5303 14.6455C46.0863 14.5023 45.7067 14.2695 45.3916 13.9473C44.7399 13.2812 44.4141 12.2393 44.4141 10.8213V5.94434H42.792C42.7848 5.73665 42.7812 5.52539 42.7812 5.31055V3.65625C42.7812 3.53451 42.7848 3.47363 42.792 3.47363H44.4141V0.412109H47.0459V3.47363H50V5.94434H47.0459V10.3271C47.0459 11.4515 47.3574 12.0924 47.9805 12.25C48.181 12.3073 48.4137 12.3359 48.6787 12.3359ZM59.1631 18.4375L59.8721 17.8682C60.9391 17.0016 61.8236 15.7233 62.5254 14.0332L63.0195 12.8408L58.9053 3.47363H61.9131L64.4912 9.96191L66.8867 3.47363H69.9805C69.6081 3.98926 69.1533 4.94889 68.6162 6.35254L67.0049 10.3379C64.8493 15.4082 63.1592 18.4303 61.9346 19.4043L59.1631 18.4375ZM70.3994 9.14551C70.3994 8.35775 70.5319 7.60579 70.7969 6.88965C71.069 6.16634 71.4557 5.53613 71.957 4.99902C73.0527 3.83887 74.4743 3.25879 76.2217 3.25879C77.9619 3.25879 79.3441 3.80664 80.3682 4.90234C81.3493 5.94792 81.8398 7.30501 81.8398 8.97363C81.8398 10.6423 81.335 12.0244 80.3252 13.1201C79.2581 14.2803 77.8438 14.8604 76.082 14.8604C74.263 14.8604 72.8379 14.291 71.8066 13.1523C70.8685 12.1139 70.3994 10.7783 70.3994 9.14551ZM73.0098 9.08105C73.0098 9.53223 73.085 9.96908 73.2354 10.3916C73.3857 10.8141 73.6006 11.1758 73.8799 11.4766C74.4743 12.1283 75.2549 12.4541 76.2217 12.4541C77.1169 12.4541 77.8223 12.1354 78.3379 11.498C78.8392 10.8822 79.0898 10.0801 79.0898 9.0918C79.0898 8.08919 78.832 7.27995 78.3164 6.66406C77.765 6.00521 77.0094 5.67578 76.0498 5.67578C75.0758 5.67578 74.3132 6.02669 73.7617 6.72852C73.2604 7.37305 73.0098 8.15723 73.0098 9.08105ZM90.8096 13.7217C89.8929 14.4808 88.8939 14.8604 87.8125 14.8604C86.6523 14.8604 85.7428 14.4701 85.084 13.6895C84.4538 12.9303 84.1387 11.8883 84.1387 10.5635V6.29883C84.1387 4.86654 84.1064 4.04655 84.042 3.83887C83.9847 3.62402 83.9417 3.48796 83.9131 3.43066C84.2425 3.45931 84.5863 3.47363 84.9443 3.47363H85.8359C86.0723 3.47363 86.3838 3.46289 86.7705 3.44141V9.66113C86.7705 11.1364 87.1715 11.9922 87.9736 12.2285C88.2171 12.3001 88.4821 12.3359 88.7686 12.3359C89.6136 12.3359 90.2939 12.028 90.8096 11.4121V3.47363H93.4736V13.3242C93.4736 13.9544 93.5023 14.4128 93.5596 14.6992H90.8096V13.7217ZM99.4463 13.4961C99.4463 14.112 99.4606 14.513 99.4893 14.6992H96.8145V3.47363H99.4463V4.30078C100.055 3.60612 100.692 3.25879 101.358 3.25879C102.032 3.25879 102.562 3.34115 102.948 3.50586L102.755 6.39551L102.712 6.42773C102.461 5.98372 101.942 5.76172 101.154 5.76172C100.854 5.76172 100.546 5.86556 100.23 6.07324C99.9225 6.27376 99.6611 6.54232 99.4463 6.87891V13.4961ZM114.518 11.7129C114.253 12.0638 114.12 12.3431 114.12 12.5508C114.12 12.7513 114.152 12.9089 114.217 13.0234C114.281 13.1309 114.421 13.2347 114.636 13.335C115.108 13.557 115.885 13.7539 116.967 13.9258C118.048 14.0905 118.893 14.2982 119.502 14.5488C120.118 14.7995 120.616 15.1074 120.995 15.4727C121.704 16.1673 122.059 17.152 122.059 18.4268C122.059 19.7015 121.611 20.679 120.716 21.3594C119.821 22.0469 118.492 22.3906 116.73 22.3906C114.954 22.3906 113.522 22.0039 112.434 21.2305C111.345 20.457 110.786 19.4294 110.758 18.1475C110.715 16.6579 111.299 15.5801 112.509 14.9141C112.179 14.6419 111.957 14.3232 111.843 13.958C111.735 13.5856 111.682 13.1631 111.682 12.6904C111.682 11.8955 112.029 11.2223 112.724 10.6709C111.914 9.90462 111.51 8.95215 111.51 7.81348C111.51 6.53874 111.968 5.47168 112.885 4.6123C113.852 3.70996 115.105 3.25879 116.645 3.25879C117.454 3.25879 118.213 3.40918 118.922 3.70996C119.853 3.31608 120.537 2.97233 120.974 2.67871C121.41 2.37793 121.69 2.15951 121.812 2.02344L121.876 2.03418C121.94 2.20605 122.016 2.44954 122.102 2.76465L122.295 3.53809C122.467 4.17546 122.571 4.6123 122.606 4.84863C122.291 5.19238 121.736 5.43587 120.941 5.5791C121.249 6.1735 121.403 6.80371 121.403 7.46973C121.403 8.13574 121.289 8.74089 121.06 9.28516C120.83 9.82227 120.505 10.2949 120.082 10.7031C119.144 11.584 117.948 12.0244 116.494 12.0244C115.785 12.0244 115.126 11.9206 114.518 11.7129ZM114.238 6.87891C114.138 7.13672 114.088 7.39811 114.088 7.66309C114.088 7.92806 114.142 8.18229 114.249 8.42578C114.364 8.66927 114.528 8.8877 114.743 9.08105C115.223 9.51074 115.85 9.72559 116.623 9.72559C117.21 9.72559 117.719 9.52865 118.148 9.13477C118.6 8.70508 118.825 8.18945 118.825 7.58789C118.825 6.97917 118.621 6.48861 118.213 6.11621C117.805 5.74382 117.243 5.55762 116.526 5.55762C115.345 5.55762 114.582 5.99805 114.238 6.87891ZM116.87 20.1133C118.632 20.1133 119.513 19.4974 119.513 18.2656C119.513 17.6784 119.226 17.2057 118.653 16.8477C118.009 16.4395 116.902 16.1208 115.334 15.8916L114.775 15.7949C114.303 16.0456 113.955 16.3678 113.733 16.7617C113.511 17.1556 113.4 17.528 113.4 17.8789C113.408 18.237 113.493 18.5449 113.658 18.8027C113.823 19.0605 114.052 19.2861 114.346 19.4795C114.997 19.902 115.839 20.1133 116.87 20.1133ZM131.802 14.0332C130.785 14.5846 129.865 14.8604 129.041 14.8604C128.217 14.8604 127.512 14.7852 126.925 14.6348C126.338 14.4772 125.84 14.248 125.432 13.9473C124.601 13.3385 124.186 12.4577 124.186 11.3047C124.186 10.2734 124.694 9.41406 125.711 8.72656C126.814 7.98177 128.311 7.60938 130.201 7.60938L130.631 7.62012C130.717 7.62728 130.813 7.63444 130.921 7.6416C131.028 7.6416 131.125 7.64876 131.211 7.66309C131.154 6.51725 130.66 5.84766 129.729 5.6543C129.421 5.58984 129.091 5.55762 128.74 5.55762C128.396 5.55762 128.056 5.58984 127.72 5.6543C127.39 5.71159 127.068 5.79036 126.753 5.89062C126.058 6.11263 125.561 6.36686 125.26 6.65332L125.228 6.63184L124.905 4.25781C126.173 3.5918 127.559 3.25879 129.062 3.25879C131.397 3.25879 132.89 4.10026 133.542 5.7832C133.75 6.32031 133.854 6.92546 133.854 7.59863V11.4873C133.854 12.318 134.147 12.8838 134.734 13.1846L132.79 14.9678C132.382 14.7529 132.052 14.4414 131.802 14.0332ZM131.222 9.59668C131.028 9.56087 130.828 9.54297 130.62 9.54297H130.19C128.608 9.54297 127.602 9.89388 127.172 10.5957C127.043 10.8034 126.979 11.0218 126.979 11.251C126.979 11.4801 127.018 11.6842 127.097 11.8633C127.183 12.0352 127.322 12.1784 127.516 12.293C127.888 12.5078 128.439 12.6152 129.17 12.6152C129.908 12.6152 130.595 12.4398 131.232 12.0889C131.225 12.0101 131.222 11.9277 131.222 11.8418V9.59668ZM140.116 11.5947C140.116 13.2061 140.145 14.2409 140.202 14.6992H137.398V3.47363H140.116V4.44043C141.097 3.65267 142.104 3.25879 143.135 3.25879C144.352 3.25879 145.237 3.78516 145.788 4.83789C146.34 4.27214 146.798 3.89974 147.163 3.7207C147.772 3.41276 148.381 3.25879 148.989 3.25879C149.605 3.25879 150.128 3.36263 150.558 3.57031C150.987 3.77799 151.342 4.07161 151.621 4.45117C152.187 5.21745 152.47 6.27018 152.47 7.60938V11.8848C152.47 13.0951 152.488 13.8219 152.523 14.0654C152.559 14.3089 152.606 14.4665 152.663 14.5381C152.728 14.6097 152.781 14.6742 152.824 14.7314L152.803 14.7744C152.23 14.7243 151.807 14.6992 151.535 14.6992H150.729C150.465 14.6992 150.139 14.71 149.752 14.7314V8.91992C149.752 7.24414 149.494 6.2487 148.979 5.93359C148.807 5.83333 148.603 5.7832 148.366 5.7832C148.137 5.7832 147.933 5.81185 147.754 5.86914C147.575 5.91927 147.407 6.00521 147.249 6.12695C146.984 6.32031 146.683 6.69987 146.347 7.26562C146.354 7.32292 146.357 7.38021 146.357 7.4375C146.357 7.49479 146.357 8.4401 146.357 10.2734C146.357 12.1068 146.4 13.582 146.486 14.6992C145.878 14.6992 145.358 14.6992 144.929 14.6992C144.506 14.6992 144.102 14.71 143.715 14.7314V8.90918C143.715 7.74186 143.643 6.98275 143.5 6.63184C143.364 6.28092 143.217 6.05176 143.06 5.94434C142.902 5.83691 142.709 5.7832 142.479 5.7832C141.534 5.7832 140.746 6.23796 140.116 7.14746V11.5947ZM155.048 9.17773C155.048 8.33984 155.191 7.56283 155.478 6.84668C155.764 6.13053 156.169 5.50391 156.691 4.9668C157.809 3.82812 159.27 3.25879 161.074 3.25879C162.6 3.25879 163.824 3.76367 164.748 4.77344C165.658 5.7474 166.112 6.97201 166.112 8.44727C166.112 9.01302 166.069 9.39974 165.983 9.60742C165.267 9.80794 163.81 9.9082 161.611 9.9082H157.83C158.016 10.6745 158.45 11.2725 159.13 11.7021C159.81 12.1247 160.695 12.3359 161.783 12.3359C162.922 12.3359 163.899 12.1318 164.716 11.7236C164.931 11.6162 165.092 11.516 165.199 11.4229C165.185 11.7236 165.167 12.0316 165.146 12.3467L165.027 14.0225C164.483 14.3949 163.602 14.6527 162.385 14.7959C162.027 14.8389 161.683 14.8604 161.354 14.8604C159.535 14.8604 158.031 14.3304 156.842 13.2705C155.646 12.2035 155.048 10.8392 155.048 9.17773ZM163.255 7.82422C162.961 6.28451 162.123 5.51465 160.741 5.51465C159.653 5.51465 158.826 5.98372 158.26 6.92188C158.088 7.20833 157.955 7.52344 157.862 7.86719C158.034 7.87435 158.245 7.88151 158.496 7.88867H159.291C159.556 7.89583 159.81 7.89941 160.054 7.89941H160.666C161.031 7.89941 161.389 7.89583 161.74 7.88867L162.621 7.85645C162.857 7.84928 163.069 7.83854 163.255 7.82422ZM-0.00488281 31.4736H2.88477L4.88281 39.541L7.03125 31.4736H9.50195L11.7256 39.7129L13.7236 31.4736H16.3232L13.0146 42.6992H10.2324L8.10547 35.3408L6.12891 42.6992H3.36816L-0.00488281 31.4736ZM17.6553 28.2725C18.2282 27.3773 18.8262 26.5895 19.4492 25.9092L21.7588 27.7246C21.4508 28.1042 21.1644 28.4766 20.8994 28.8418C20.8994 28.8418 20.6237 29.2321 20.0723 30.0127L17.6553 28.2725ZM20.4805 41.4961C20.4805 42.112 20.4948 42.513 20.5234 42.6992H17.7949V31.4736H20.4805V41.4961ZM28.5049 40.3359C29.4287 40.3359 30.0625 40.096 30.4062 39.6162H30.4922L30.5244 42.1084C30.1735 42.4593 29.5218 42.6921 28.5693 42.8066C28.3115 42.8424 27.9893 42.8604 27.6025 42.8604C27.223 42.8604 26.8076 42.7887 26.3564 42.6455C25.9124 42.5023 25.5329 42.2695 25.2178 41.9473C24.5661 41.2812 24.2402 40.2393 24.2402 38.8213V33.9443H22.6182C22.611 33.7367 22.6074 33.5254 22.6074 33.3105V31.6562C22.6074 31.5345 22.611 31.4736 22.6182 31.4736H24.2402V28.4121H26.8721V31.4736H29.8262V33.9443H26.8721V38.3271C26.8721 39.4515 27.1836 40.0924 27.8066 40.25C28.0072 40.3073 28.2399 40.3359 28.5049 40.3359ZM35.627 41.4961C35.627 42.112 35.6413 42.513 35.6699 42.6992H32.9951V27.3379H35.627V32.3115C36.5508 31.6097 37.5033 31.2588 38.4844 31.2588C39.6875 31.2588 40.6543 31.6562 41.3848 32.4512C42.1009 33.2461 42.459 34.2988 42.459 35.6094V39.8848C42.459 41.0951 42.4769 41.8219 42.5127 42.0654C42.5485 42.3089 42.5951 42.4665 42.6523 42.5381C42.7168 42.6097 42.7705 42.6742 42.8135 42.7314L42.792 42.7744C42.2119 42.7243 41.7894 42.6992 41.5244 42.6992H40.7617C40.5254 42.6992 40.2139 42.71 39.8271 42.7314V36.5117C39.8271 35.5234 39.6087 34.793 39.1719 34.3203C38.8424 33.9622 38.3949 33.7832 37.8291 33.7832C36.9912 33.7832 36.2572 34.2666 35.627 35.2334V41.4961ZM57.8311 40.3359C58.7549 40.3359 59.3887 40.096 59.7324 39.6162H59.8184L59.8506 42.1084C59.4997 42.4593 58.848 42.6921 57.8955 42.8066C57.6377 42.8424 57.3154 42.8604 56.9287 42.8604C56.5492 42.8604 56.1338 42.7887 55.6826 42.6455C55.2386 42.5023 54.859 42.2695 54.5439 41.9473C53.8923 41.2812 53.5664 40.2393 53.5664 38.8213V33.9443H51.9443C51.9372 33.7367 51.9336 33.5254 51.9336 33.3105V31.6562C51.9336 31.5345 51.9372 31.4736 51.9443 31.4736H53.5664V28.4121H56.1982V31.4736H59.1523V33.9443H56.1982V38.3271C56.1982 39.4515 56.5098 40.0924 57.1328 40.25C57.3333 40.3073 57.5661 40.3359 57.8311 40.3359ZM64.9531 41.4961C64.9531 42.112 64.9674 42.513 64.9961 42.6992H62.3213V27.3379H64.9531V32.3115C65.877 31.6097 66.8294 31.2588 67.8105 31.2588C69.0137 31.2588 69.9805 31.6562 70.7109 32.4512C71.4271 33.2461 71.7852 34.2988 71.7852 35.6094V39.8848C71.7852 41.0951 71.8031 41.8219 71.8389 42.0654C71.8747 42.3089 71.9212 42.4665 71.9785 42.5381C72.043 42.6097 72.0967 42.6742 72.1396 42.7314L72.1182 42.7744C71.5381 42.7243 71.1156 42.6992 70.8506 42.6992H70.0879C69.8516 42.6992 69.54 42.71 69.1533 42.7314V36.5117C69.1533 35.5234 68.9349 34.793 68.498 34.3203C68.1686 33.9622 67.721 33.7832 67.1553 33.7832C66.3174 33.7832 65.5833 34.2666 64.9531 35.2334V41.4961ZM74.3311 37.1777C74.3311 36.3398 74.4743 35.5628 74.7607 34.8467C75.0472 34.1305 75.4518 33.5039 75.9746 32.9668C77.0918 31.8281 78.5527 31.2588 80.3574 31.2588C81.8828 31.2588 83.1074 31.7637 84.0312 32.7734C84.9408 33.7474 85.3955 34.972 85.3955 36.4473C85.3955 37.013 85.3525 37.3997 85.2666 37.6074C84.5505 37.8079 83.0931 37.9082 80.8945 37.9082H77.1133C77.2995 38.6745 77.7327 39.2725 78.4131 39.7021C79.0934 40.1247 79.9779 40.3359 81.0664 40.3359C82.2051 40.3359 83.1826 40.1318 83.999 39.7236C84.2139 39.6162 84.375 39.516 84.4824 39.4229C84.4681 39.7236 84.4502 40.0316 84.4287 40.3467L84.3105 42.0225C83.7663 42.3949 82.8854 42.6527 81.668 42.7959C81.3099 42.8389 80.9661 42.8604 80.6367 42.8604C78.8177 42.8604 77.3138 42.3304 76.125 41.2705C74.929 40.2035 74.3311 38.8392 74.3311 37.1777ZM82.5381 35.8242C82.2445 34.2845 81.4066 33.5146 80.0244 33.5146C78.9359 33.5146 78.1087 33.9837 77.543 34.9219C77.3711 35.2083 77.2386 35.5234 77.1455 35.8672C77.3174 35.8743 77.5286 35.8815 77.7793 35.8887H78.5742C78.8392 35.8958 79.0934 35.8994 79.3369 35.8994H79.9492C80.3145 35.8994 80.6725 35.8958 81.0234 35.8887L81.9043 35.8564C82.1406 35.8493 82.3519 35.8385 82.5381 35.8242ZM97.7275 31.8818C98.5296 31.4665 99.3496 31.2588 100.188 31.2588C101.025 31.2588 101.745 31.3913 102.347 31.6562C102.955 31.9141 103.489 32.2865 103.947 32.7734C104.943 33.8548 105.44 35.2227 105.44 36.877C105.44 38.6888 104.9 40.1497 103.818 41.2598C102.78 42.3268 101.487 42.8604 99.9404 42.8604C98.5798 42.8604 97.459 42.5059 96.5781 41.7969C95.5898 40.9948 95.0957 39.8883 95.0957 38.4775V26.7148H97.7275V31.8818ZM97.7275 38.4453C97.7275 39.7057 98.5117 40.3359 100.08 40.3359C100.846 40.3359 101.491 39.9993 102.014 39.3262C102.544 38.6387 102.809 37.7829 102.809 36.7588C102.809 35.7275 102.529 34.9505 101.971 34.4277C101.469 33.9622 100.796 33.7295 99.9512 33.7295C99.4427 33.7295 98.8805 33.9014 98.2646 34.2451C98.0713 34.3525 97.8923 34.4707 97.7275 34.5996V38.4453ZM107.267 37.1777C107.267 36.3398 107.41 35.5628 107.696 34.8467C107.983 34.1305 108.387 33.5039 108.91 32.9668C110.027 31.8281 111.488 31.2588 113.293 31.2588C114.818 31.2588 116.043 31.7637 116.967 32.7734C117.876 33.7474 118.331 34.972 118.331 36.4473C118.331 37.013 118.288 37.3997 118.202 37.6074C117.486 37.8079 116.029 37.9082 113.83 37.9082H110.049C110.235 38.6745 110.668 39.2725 111.349 39.7021C112.029 40.1247 112.913 40.3359 114.002 40.3359C115.141 40.3359 116.118 40.1318 116.935 39.7236C117.149 39.6162 117.311 39.516 117.418 39.4229C117.404 39.7236 117.386 40.0316 117.364 40.3467L117.246 42.0225C116.702 42.3949 115.821 42.6527 114.604 42.7959C114.245 42.8389 113.902 42.8604 113.572 42.8604C111.753 42.8604 110.249 42.3304 109.061 41.2705C107.865 40.2035 107.267 38.8392 107.267 37.1777ZM115.474 35.8242C115.18 34.2845 114.342 33.5146 112.96 33.5146C111.871 33.5146 111.044 33.9837 110.479 34.9219C110.307 35.2083 110.174 35.5234 110.081 35.8672C110.253 35.8743 110.464 35.8815 110.715 35.8887H111.51C111.775 35.8958 112.029 35.8994 112.272 35.8994H112.885C113.25 35.8994 113.608 35.8958 113.959 35.8887L114.84 35.8564C115.076 35.8493 115.287 35.8385 115.474 35.8242ZM124.454 42.8604C122.435 42.8604 120.913 42.4915 119.889 41.7539C119.903 41.5391 119.924 41.2956 119.953 41.0234L120.05 40.25C120.107 39.7415 120.143 39.4264 120.157 39.3047C120.172 39.1758 120.182 39.1077 120.189 39.1006C120.197 39.0863 120.254 39.1436 120.361 39.2725C120.469 39.3942 120.673 39.5446 120.974 39.7236C121.274 39.9027 121.622 40.0602 122.016 40.1963C122.868 40.4899 123.756 40.6367 124.68 40.6367C125.919 40.6367 126.538 40.2249 126.538 39.4014C126.538 39.1364 126.42 38.9395 126.184 38.8105C125.761 38.5957 125.138 38.4346 124.314 38.3271C123.498 38.2126 122.828 38.0479 122.306 37.833C121.783 37.6182 121.357 37.3604 121.027 37.0596C120.419 36.4938 120.114 35.7526 120.114 34.8359C120.114 33.7188 120.544 32.8415 121.403 32.2041C122.256 31.5739 123.434 31.2588 124.938 31.2588C126.427 31.2588 127.698 31.6813 128.751 32.5264C128.701 32.7126 128.647 32.8916 128.59 33.0635C128.425 33.5361 128.303 33.8763 128.225 34.084L127.978 34.7178C127.963 34.7751 127.952 34.8037 127.945 34.8037C127.931 34.8037 127.874 34.7285 127.773 34.5781C127.322 34.0553 126.62 33.7116 125.668 33.5469C125.374 33.4896 125.074 33.4609 124.766 33.4609C123.462 33.4609 122.811 33.8548 122.811 34.6426C122.811 34.9147 122.947 35.1224 123.219 35.2656C123.727 35.5378 124.422 35.7383 125.303 35.8672C126.191 35.9961 126.864 36.1715 127.322 36.3936C127.781 36.6084 128.149 36.8698 128.429 37.1777C128.944 37.7363 129.202 38.4775 129.202 39.4014C129.202 40.4111 128.798 41.2311 127.988 41.8613C127.143 42.5273 125.965 42.8604 124.454 42.8604ZM136.679 40.3359C137.603 40.3359 138.236 40.096 138.58 39.6162H138.666L138.698 42.1084C138.347 42.4593 137.696 42.6921 136.743 42.8066C136.485 42.8424 136.163 42.8604 135.776 42.8604C135.397 42.8604 134.981 42.7887 134.53 42.6455C134.086 42.5023 133.707 42.2695 133.392 41.9473C132.74 41.2812 132.414 40.2393 132.414 38.8213V33.9443H130.792C130.785 33.7367 130.781 33.5254 130.781 33.3105V31.6562C130.781 31.5345 130.785 31.4736 130.792 31.4736H132.414V28.4121H135.046V31.4736H138V33.9443H135.046V38.3271C135.046 39.4515 135.357 40.0924 135.98 40.25C136.181 40.3073 136.414 40.3359 136.679 40.3359Z" fill="url(#paint0_linear_520_2466)"/>
<defs>
<linearGradient id="paint0_linear_520_2466" x1="-0.0800781" y1="31.8637" x2="319.698" y2="31.8637" gradientUnits="userSpaceOnUse">
<stop stop-color="#EBE2F4"/>
<stop offset="1" stop-color="#14FF00"/>
</linearGradient>
</defs>
</svg>
