<svg width="18" height="18" viewBox="0 0 18 18" fill="none" xmlns="http://www.w3.org/2000/svg">
<path d="M8.58692 0.5C6.90578 0.5 5.26239 0.998516 3.86457 1.93251C2.46675 2.8665 1.37729 4.19402 0.733942 5.74719C0.090597 7.30036 -0.0777314 9.00943 0.250243 10.6583C0.578217 12.3071 1.38776 13.8217 2.57651 15.0104C3.76526 16.1992 5.27981 17.0087 6.92865 17.3367C8.57749 17.6646 10.2866 17.4963 11.8397 16.853C13.3929 16.2096 14.7204 15.1202 15.6544 13.7223C16.5884 12.3245 17.0869 10.6811 17.0869 9C17.0845 6.74641 16.1882 4.58582 14.5946 2.99228C13.0011 1.39875 10.8405 0.502437 8.58692 0.5V0.5ZM14.9201 8.29167H12.4565C12.2959 6.44638 11.7431 4.65667 10.8352 3.04221C11.9327 3.45729 12.8947 4.16684 13.6153 5.09291C14.336 6.01899 14.7874 7.12576 14.9201 8.29167ZM6.94713 10.4167H10.2267C9.9478 11.9005 9.39148 13.3183 8.58692 14.5958C7.78224 13.3184 7.2259 11.9005 6.94713 10.4167ZM6.85363 8.29167C7.052 6.55184 7.64482 4.88024 8.58692 3.40417C9.52913 4.88018 10.122 6.55182 10.3202 8.29167H6.85363ZM6.33867 3.04221C5.4307 4.65667 4.87792 6.44638 4.71729 8.29167H2.25371C2.38641 7.12576 2.83788 6.01899 3.55852 5.09291C4.27917 4.16684 5.2411 3.45729 6.33867 3.04221ZM2.37625 10.4167H4.79096C5.0293 12.0112 5.55362 13.5496 6.33867 14.9578C5.3556 14.5852 4.47964 13.9759 3.78845 13.1837C3.09726 12.3916 2.61219 11.4411 2.37625 10.4167ZM10.8352 14.9578C11.6205 13.5497 12.1449 12.0113 12.3829 10.4167H14.7976C14.5616 11.4411 14.0766 12.3916 13.3854 13.1837C12.6942 13.9759 11.8182 14.5852 10.8352 14.9578Z" fill="white"/>
</svg>
